{
    "asset" : {
        "generator" : "Khronos glTF Blender I/O v1.0.5",
        "version" : "2.0"
    },
    "scene" : 0,
    "scenes" : [
        {
            "name" : "Scene",
            "nodes" : [
                2
            ]
        }
    ],
    "nodes" : [
        {
            "mesh" : 0,
            "name" : "big_mac_",
            "rotation" : [
                0,
                0,
                0.10182984918355942,
                0.994801938533783
            ],
            "scale" : [
                0.5251001715660095,
                0.5587000846862793,
                0.5393000245094299
            ]
        },
        {
            "children" : [
                0
            ],
            "name" : "Group",
            "scale" : [
                1,
                1,
                1.0579999685287476
            ]
        },
        {
            "children" : [
                1
            ],
            "name" : "big_mac_4_low_poly",
            "rotation" : [
                0.7071068286895752,
                0,
                0,
                0.7071067094802856
            ],
            "scale" : [
                0.028417622670531273,
                0.028417624533176422,
                0.028417624533176422
            ],
            "translation" : [
                0.06301307678222656,
                -0.23807837069034576,
                0.026259243488311768
            ]
        }
    ],
    "materials" : [
        {
            "doubleSided" : true,
            "name" : "Mat_1",
            "pbrMetallicRoughness" : {
                "baseColorFactor" : [
                    1,
                    1,
                    1,
                    1
                ],
                "metallicFactor" : 1,
                "roughnessFactor" : 1
            }
        }
    ],
    "meshes" : [
        {
            "name" : "big_mac_",
            "primitives" : [
                {
                    "attributes" : {
                        "POSITION" : 0,
                        "NORMAL" : 1,
                        "TEXCOORD_0" : 2
                    },
                    "indices" : 3,
                    "material" : 0
                }
            ]
        }
    ],
    "accessors" : [
        {
            "bufferView" : 0,
            "componentType" : 5126,
            "count" : 41821,
            "max" : [
                113.95022583007812,
                112.2748794555664,
                0.25034666061401367
            ],
            "min" : [
                -116.96845245361328,
                -115.64399719238281,
                -169.80862426757812
            ],
            "type" : "VEC3"
        },
        {
            "bufferView" : 1,
            "componentType" : 5126,
            "count" : 41821,
            "type" : "VEC3"
        },
        {
            "bufferView" : 2,
            "componentType" : 5126,
            "count" : 41821,
            "type" : "VEC2"
        },
        {
            "bufferView" : 3,
            "componentType" : 5123,
            "count" : 198126,
            "type" : "SCALAR"
        }
    ],
    "bufferViews" : [
        {
            "buffer" : 0,
            "byteLength" : 501852,
            "byteOffset" : 0
        },
        {
            "buffer" : 0,
            "byteLength" : 501852,
            "byteOffset" : 501852
        },
        {
            "buffer" : 0,
            "byteLength" : 334568,
            "byteOffset" : 1003704
        },
        {
            "buffer" : 0,
            "byteLength" : 396252,
            "byteOffset" : 1338272
        }
    ],
    "buffers" : [
        {
            "byteLength" : 1734524,
            "uri" : "data:application/octet-stream;base64,"
        }
    ]
}
