{
    "asset" : {
        "generator" : "Khronos glTF Blender I/O v1.0.5",
        "version" : "2.0"
    },
    "scene" : 0,
    "scenes" : [
        {
            "name" : "Scene",
            "nodes" : [
                0,
                1,
                4
            ]
        }
    ],
    "nodes" : [
        {
            "name" : "Light",
            "rotation" : [
                0.16907575726509094,
                0.7558803558349609,
                -0.27217137813568115,
                0.570947527885437
            ],
            "translation" : [
                4.076245307922363,
                5.903861999511719,
                -1.0054539442062378
            ]
        },
        {
            "name" : "Camera",
            "rotation" : [
                0.483536034822464,
                0.33687159419059753,
                -0.20870360732078552,
                0.7804827094078064
            ],
            "translation" : [
                7.358891487121582,
                4.958309173583984,
                6.925790786743164
            ]
        },
        {
            "mesh" : 0,
            "name" : "big_mac_",
            "rotation" : [
                0,
                0,
                0.10182985663414001,
                0.994801938533783
            ],
            "scale" : [
                0.5251001715660095,
                0.5587000846862793,
                0.5393000245094299
            ]
        },
        {
            "children" : [
                2
            ],
            "name" : "Group",
            "scale" : [
                1,
                1,
                1.0579999685287476
            ]
        },
        {
            "children" : [
                3
            ],
            "name" : "big_mac_4_low_poly",
            "rotation" : [
                0.7071068286895752,
                0,
                0,
                0.7071067094802856
            ],
            "scale" : [
                0.03692922741174698,
                0.03692923113703728,
                0.03692923113703728
            ],
            "translation" : [
                -0.7423553466796875,
                -0.7181122899055481,
                0.01450347900390625
            ]
        }
    ],
    "materials" : [
        {
            "name" : "Mat_1.001",
            "pbrMetallicRoughness" : {
                "baseColorFactor" : [
                    0.8000000715255737,
                    0.7529998421669006,
                    0.5669994354248047,
                    1
                ],
                "baseColorTexture" : {
                    "index" : 0,
                    "texCoord" : 0
                },
                "metallicFactor" : 0,
                "roughnessFactor" : 1
            }
        }
    ],
    "meshes" : [
        {
            "name" : "big_mac_",
            "primitives" : [
                {
                    "attributes" : {
                        "POSITION" : 0,
                        "NORMAL" : 1,
                        "TEXCOORD_0" : 2
                    },
                    "indices" : 3,
                    "material" : 0
                }
            ]
        }
    ],
    "textures" : [
        {
            "source" : 0
        }
    ],
    "images" : [
        {
            "mimeType" : "image/png",
            "name" : "Big Mac UV 3",
            "uri" : "Big Mac UV 3.png"
        }
    ],
    "accessors" : [
        {
            "bufferView" : 0,
            "componentType" : 5126,
            "count" : 41757,
            "max" : [
                113.95022583007812,
                112.2748794555664,
                0.25034666061401367
            ],
            "min" : [
                -116.96845245361328,
                -115.64399719238281,
                -169.80862426757812
            ],
            "type" : "VEC3"
        },
        {
            "bufferView" : 1,
            "componentType" : 5126,
            "count" : 41757,
            "type" : "VEC3"
        },
        {
            "bufferView" : 2,
            "componentType" : 5126,
            "count" : 41757,
            "type" : "VEC2"
        },
        {
            "bufferView" : 3,
            "componentType" : 5123,
            "count" : 198126,
            "type" : "SCALAR"
        }
    ],
    "bufferViews" : [
        {
            "buffer" : 0,
            "byteLength" : 501084,
            "byteOffset" : 0
        },
        {
            "buffer" : 0,
            "byteLength" : 501084,
            "byteOffset" : 501084
        },
        {
            "buffer" : 0,
            "byteLength" : 334056,
            "byteOffset" : 1002168
        },
        {
            "buffer" : 0,
            "byteLength" : 396252,
            "byteOffset" : 1336224
        }
    ],
    "buffers" : [
        {
            "byteLength" : 1732476,
            "uri" : "burger.bin"
        }
    ]
}
