{
    "asset" : {
        "generator" : "Khronos glTF Blender I/O v1.0.5",
        "version" : "2.0"
    },
    "scene" : 0,
    "scenes" : [
        {
            "name" : "Burger",
            "nodes" : [
                2
            ]
        }
    ],
    "nodes" : [
        {
            "mesh" : 0,
            "name" : "big_mac_",
            "rotation" : [
                0,
                -0.10182983428239822,
                0,
                0.994801938533783
            ],
            "scale" : [
                0.5251001119613647,
                0.5393000245094299,
                0.5587000846862793
            ]
        },
        {
            "children" : [
                0
            ],
            "name" : "Group",
            "scale" : [
                1,
                1.0579999685287476,
                1
            ]
        },
        {
            "children" : [
                1
            ],
            "name" : "big_mac_4_low_poly",
            "scale" : [
                0.30000001192092896,
                0.30000001192092896,
                0.30000001192092896
            ],
            "translation" : [
                30.83954429626465,
                1.5294864177703857,
                -10.558355331420898
            ]
        }
    ],
    "materials" : [
        {
            "doubleSided" : true,
            "name" : "Mat_1",
            "pbrMetallicRoughness" : {}
        }
    ],
    "meshes" : [
        {
            "name" : "big_mac_",
            "primitives" : [
                {
                    "attributes" : {
                        "POSITION" : 0,
                        "NORMAL" : 1,
                        "TEXCOORD_0" : 2
                    },
                    "indices" : 3,
                    "material" : 0
                }
            ]
        }
    ],
    "accessors" : [
        {
            "bufferView" : 0,
            "componentType" : 5126,
            "count" : 41451,
            "max" : [
                113.95022583007812,
                169.80862426757812,
                112.2748794555664
            ],
            "min" : [
                -116.96845245361328,
                -0.25034666061401367,
                -115.64399719238281
            ],
            "type" : "VEC3"
        },
        {
            "bufferView" : 1,
            "componentType" : 5126,
            "count" : 41451,
            "type" : "VEC3"
        },
        {
            "bufferView" : 2,
            "componentType" : 5126,
            "count" : 41451,
            "type" : "VEC2"
        },
        {
            "bufferView" : 3,
            "componentType" : 5123,
            "count" : 198126,
            "type" : "SCALAR"
        }
    ],
    "bufferViews" : [
        {
            "buffer" : 0,
            "byteLength" : 497412,
            "byteOffset" : 0
        },
        {
            "buffer" : 0,
            "byteLength" : 497412,
            "byteOffset" : 497412
        },
        {
            "buffer" : 0,
            "byteLength" : 331608,
            "byteOffset" : 994824
        },
        {
            "buffer" : 0,
            "byteLength" : 396252,
            "byteOffset" : 1326432
        }
    ],
    "buffers" : [
        {
            "byteLength" : 1722684,
            "uri" : "data:application/octet-stream;base64,"
        }
    ]
}
